#!OML:ASF H:\Terrain\Patient Classification 1\PLAYGROUND\JustinFriday\JustinFriday.ASF
:FULLY-SPECIFIED
:DEGREES
184
root -12.2348 17.3692 14.3725 183.94 -74.9518 -181.99
lowerback 9.44714 -1.92635 -3.29564
upperback 3.33263 -2.96792 0.438994
thorax -1.63991 -1.54895 2.61848
lowerneck 4.90303 -13.2482 -15.9836
upperneck 12.8359 -19.8195 10.0772
head 5.68857 -10.233 4.53304
rclavicle 2.98177e-015 -8.64713e-015
rhumerus -37.4006 -17.2708 -59.1086
rradius 58.7945
rwrist -8.87985
rhand -23.9621 -23.9906
rfingers 7.12502
rthumb 2.51393 -53.9555
lclavicle 2.98177e-015 -8.64713e-015
lhumerus -29.3485 10.9776 67.6055
lradius 41.0929
lwrist 2.42472
lhand -20.5038 -6.54753
lfingers 7.12502
lthumb 5.8534 23.3516
rfemur -26.8279 -7.67066 31.7942
rtibia 32.2423
rfoot -12.0221 -19.9566
rtoes 30.3962
lfemur 5.91069 10.1297 -11.5718
ltibia 37.3636
lfoot -1.09255 -8.45257
ltoes -5.53131
185
root -12.3777 17.409 14.3878 186.857 -74.2434 -184.37
lowerback 9.03066 -1.92275 -2.83874
upperback 2.94208 -2.90594 0.0130141
thorax -1.86563 -1.49738 1.90872
lowerneck 4.99308 -13.3846 -14.2441
upperneck 12.3469 -19.7066 8.53984
head 5.18006 -10.157 3.88857
rclavicle -2.53202e-014 6.95746e-015
rhumerus -37.1053 -17.6412 -58.5134
rradius 60.047
rwrist -8.5891
rhand -24.5715 -22.7343
rfingers 7.12502
rthumb 1.92545 -52.7054
lclavicle -2.53202e-014 6.95746e-015
lhumerus -29.886 10.6298 67.7069
lradius 41.0609
lwrist 2.62412
lhand -20.8178 -6.37944
lfingers 7.12502
lthumb 5.55029 23.5279
rfemur -27.1266 -9.04236 31.2526
rtibia 32.0987
rfoot -11.1916 -18.1373
rtoes 29.2997
lfemur 3.88842 10.2632 -12.7125
ltibia 39.885
lfoot 0.964927 -7.81238
ltoes -4.05828
186
root -12.5295 17.4075 14.2622 183.144 -74.1564 -181.999
lowerback 9.89409 -1.86588 -3.1728
upperback 3.34764 -2.89771 0.434577
thorax -1.88145 -1.51157 2.55808
lowerneck 5.25174 -13.3826 -14.7417
upperneck 12.2457 -19.8249 9.08483
head 5.22442 -10.2266 4.12368
rclavicle -6.39838e-014 1.09332e-014
rhumerus -36.6791 -17.8181 -57.936
rradius 61.4664
rwrist -8.51925
rhand -25.1114 -22.4795
rfingers 7.12502
rthumb 1.404 -52.4546
lclavicle -6.39838e-014 1.09332e-014
lhumerus -30.346 10.0852 68.1619
lradius 41.0755
lwrist 4.28854
lhand -21.9309 -6.36343
lfingers 7.12502
lthumb 4.47552 23.5693
rfemur -24.605 -8.26785 31.7394
rtibia 31.9392
rfoot -12.3395 -18.7756
rtoes 30.2758
lfemur 4.48951 10.2389 -10.9464
ltibia 42.183
lfoot 3.42307 -8.55427
ltoes -0.820948
187
root -12.6794 17.429 14.1856 181.992 -73.7703 -180.723
lowerback 9.42372 -1.85781 -2.91111
upperback 3.29543 -2.83826 0.609405
thorax -1.68496 -1.48241 2.56634
lowerneck 5.40207 -13.4342 -15.585
upperneck 12.2417 -20.0523 9.84523
head 5.38906 -10.3528 4.44308
rclavicle -2.55066e-014 5.1684e-015
rhumerus -36.4415 -17.9711 -57.3803
rradius 63.076
rwrist -8.07993
rhand -25.4375 -22.48
rfingers 7.12502
rthumb 1.08904 -52.457
lclavicle -2.55066e-014 5.1684e-015
lhumerus -30.7594 10.4088 68.1635
lradius 40.8509
lwrist 3.21788
lhand -20.4048 -6.67261
lfingers 7.12502
lthumb 5.94898 23.2239
rfemur -23.8445 -7.96331 32.1551
rtibia 31.6738
rfoot -12.8776 -18.4916
rtoes 31.1653
lfemur 3.22333 10.2525 -10.2741
ltibia 44.5499
lfoot 5.62579 -8.87263
ltoes -0.14768
188
root -12.8247 17.4256 14.05 180.302 -72.9546 -179.239
lowerback 9.06795 -1.65044 -3.51477
upperback 3.36322 -2.59954 0.888631
thorax -1.39252 -1.37559 3.15384
lowerneck 5.82756 -13.5041 -15.2495
upperneck 11.5617 -20.087 9.62573
head 5.05761 -10.3703 4.38659
rclavicle 1.89591e-014 -6.55989e-015
rhumerus -36.0982 -17.9682 -57.0345
rradius 64.4576
rwrist -7.38284
rhand -26.1708 -21.2926
rfingers 7.12502
rthumb 0.380821 -51.272
lclavicle 1.89591e-014 -6.55989e-015
lhumerus -31.2758 10.4353 68.0499
lradius 40.6962
lwrist 3.1262
lhand -19.8016 -6.56714
lfingers 7.12502
lthumb 6.53135 23.3121
rfemur -22.4242 -6.85642 32.8015
rtibia 31.2756
rfoot -13.6102 -18.8149
rtoes 31.5692
lfemur 2.68969 10.9012 -8.95582
ltibia 46.774
lfoot 7.92127 -10.0141
ltoes 1.38114
189
root -12.9652 17.4509 14.067 178.899 -72.8874 -178.034
lowerback 9.52909 -1.92556 -1.89407
upperback 3.24497 -2.837 0.680957
thorax -1.84232 -1.47558 2.07634
lowerneck 6.03707 -13.4025 -15.3353
upperneck 11.4437 -20.0416 10.0837
head 5.03509 -10.3494 4.55912
rclavicle -2.17172e-014 1.08338e-014
rhumerus -35.4765 -17.9441 -56.7654
rradius 65.8851
rwrist -6.56152
rhand -27.8985 -21.5389
rfingers 7.12502
rthumb -1.28793 -51.5147
lclavicle -2.17172e-014 1.08338e-014
lhumerus -31.6523 10.3584 67.9124
lradius 40.4426
lwrist 3.28183
lhand -19.6843 -6.31855
lfingers 7.12502
lthumb 6.64457 23.5572
rfemur -21.6183 -8.82249 33.0771
rtibia 30.8253
rfoot -13.15 -17.1608
rtoes 30.609
lfemur 1.41263 9.98943 -8.99294
ltibia 49.0687
lfoot 10.0698 -9.61384
ltoes 4.68987
190
root -13.1024 17.4709 14.026 178.279 -71.9405 -177.283
lowerback 9.35211 -1.72362 -1.2796
upperback 3.10112 -2.50479 0.654294
thorax -1.93791 -1.30307 1.66594
lowerneck 5.9958 -13.5246 -15.6033
upperneck 11.7639 -20.3112 10.4092
head 5.23688 -10.4871 4.64789
rclavicle 5.87657e-014 -2.19657e-014
rhumerus -34.9918 -18.2827 -56.2802
rradius 67.5668
rwrist -5.55743
rhand -27.55 -16.9889
rfingers 7.12502
rthumb -0.951265 -46.9666
lclavicle 5.87657e-014 -2.19657e-014
lhumerus -31.8482 10.3674 67.8763
lradius 40.0096
lwrist 2.63069
lhand -18.9502 -6.39525
lfingers 7.12502
lthumb 7.35321 23.457
rfemur -20.9491 -9.27158 33.417
rtibia 30.3961
rfoot -12.5992 -16.0764
rtoes 28.89
lfemur 0.176851 10.2156 -8.73794
ltibia 51.1729
lfoot 11.76 -9.64526
ltoes 5.61999
191
root -13.2388 17.481 13.9566 177.217 -70.9723 -176.313
lowerback 9.25944 -1.43621 -1.07962
upperback 3.07195 -2.1005 0.815049
thorax -1.93304 -1.10176 1.67459
lowerneck 5.89116 -13.631 -15.462
upperneck 12.0526 -20.4418 10.1109
head 5.31627 -10.5549 4.50993
rclavicle -3.6477e-014 4.07509e-015
rhumerus -34.4621 -18.3702 -55.6459
rradius 68.9663
rwrist -4.85529
rhand -27.0692 -27.4783
rfingers 7.12502
rthumb -0.486927 -57.4575
lclavicle -3.6477e-014 4.07509e-015
lhumerus -32.0487 10.2211 68.08
lradius 39.6248
lwrist 2.11821
lhand -18.4403 -6.42383
lfingers 7.12502
lthumb 7.84538 23.4106
rfemur -19.8577 -8.55711 33.7996
rtibia 29.9384
rfoot -12.5586 -16.08
rtoes 27.4804
lfemur -0.729676 10.3803 -8.1708
ltibia 53.2421
lfoot 13.1868 -9.76735
ltoes 6.93316
192
root -13.3747 17.4752 13.8681 175.747 -70.4507 -175.194
lowerback 9.24288 -1.31622 -1.12361
upperback 3.21049 -1.94767 1.0916
thorax -1.7747 -1.03328 1.96584
lowerneck 5.6917 -13.5566 -14.998
upperneck 12.2256 -20.2148 9.3568
head 5.24871 -10.4447 4.23142
rclavicle -5.93559e-014 2.89232e-014
rhumerus -33.6503 -18.0173 -55.0089
rradius 70.0297
rwrist -4.56683
rhand -29.1708 -19.4597
rfingers 7.12502
rthumb -2.51663 -49.4246
lclavicle -5.93559e-014 2.89232e-014
lhumerus -32.1955 10.1847 68.3103
lradius 39.2423
lwrist 1.98802
lhand -18.2803 -6.30716
lfingers 7.12502
lthumb 7.99984 23.5214
rfemur -18.4679 -7.74394 34.2393
rtibia 29.567
rfoot -13.1592 -16.569
rtoes 27.3361
lfemur -1.31158 10.2544 -7.31217
ltibia 55.0748
lfoot 14.473 -10.3439
ltoes 8.48735
193
root -13.504 17.4894 13.8771 175.213 -69.2749 -174.304
lowerback 9.15449 -1.20805 0.140218
upperback 2.96931 -1.68252 1.03422
thorax -2.02441 -0.89132 1.17066
lowerneck 5.62177 -13.7268 -15.3563
upperneck 12.3467 -20.5259 9.72885
head 5.4125 -10.5984 4.34251
rclavicle 3.83282e-015 5.8393e-015
rhumerus -32.908 -17.8516 -54.4549
rradius 71.3743
rwrist -3.9581
rhand -29.1203 -19.9514
rfingers 7.12502
rthumb -2.46792 -49.9169
lclavicle 3.83282e-015 5.8393e-015
lhumerus -32.4385 10.3991 68.2784
lradius 38.7326
lwrist 1.63771
lhand -18.2094 -6.2757
lfingers 7.12502
lthumb 8.06826 23.5503
rfemur -18.1455 -7.96322 34.5468
rtibia 29.2452
rfoot -12.9701 -15.3339
rtoes 26.8543
lfemur -2.84725 10.6533 -7.20508
ltibia 56.9849
lfoot 14.9951 -10.5762
ltoes 7.12979
